<?xml version="1.0" encoding="UTF-8" standalone="no"?>
<svg
   xmlns:dc="http://purl.org/dc/elements/1.1/"
   xmlns:cc="http://creativecommons.org/ns#"
   xmlns:rdf="http://www.w3.org/1999/02/22-rdf-syntax-ns#"
   xmlns:svg="http://www.w3.org/2000/svg"
   xmlns="http://www.w3.org/2000/svg"
   width="71.4375mm"
   height="70.114616mm"
   viewBox="0 0 71.4375 70.114616"
   version="1.1"
   id="svg8">
  <defs
     id="defs2" />
  <metadata
     id="metadata5">
    <rdf:RDF>
      <cc:Work
         rdf:about="">
        <dc:format>image/svg+xml</dc:format>
        <dc:type
           rdf:resource="http://purl.org/dc/dcmitype/StillImage" />
        <dc:title></dc:title>
      </cc:Work>
    </rdf:RDF>
  </metadata>
  <g
     id="layer1"
     transform="translate(-43.65625,-69.458334)">
    <g
       id="g4733">
      <g
         id="g4746">
        <circle
           style="opacity:1;fill:#ffffff;fill-opacity:0;fill-rule:nonzero;stroke:#000000;stroke-width:1.5;stroke-linecap:square;stroke-miterlimit:4;stroke-dasharray:none;stroke-opacity:1"
           id="path4518"
           cx="78.430054"
           cy="104.42113"
           r="20.599701" />
        <path
           style="fill:none;stroke:#000000;stroke-width:1.5;stroke-linecap:butt;stroke-linejoin:miter;stroke-miterlimit:4;stroke-dasharray:none;stroke-opacity:1"
           d="m 67.657738,86.089285 c 0.88189,2.267717 1.763834,4.535572 4.283855,7.181585 2.52002,2.646014 6.677503,5.669638 10.016347,7.49652 3.338844,1.82689 5.858714,2.45686 8.18951,2.89781 2.330795,0.44096 4.47282,0.69296 5.858738,0.62988 1.385919,-0.0631 2.015949,-0.4411 2.645596,-0.81889"
           id="path4524" />
        <path
           style="opacity:1;fill:#000000;fill-opacity:1;fill-rule:nonzero;stroke:#000000;stroke-width:1.43171227;stroke-linecap:square;stroke-miterlimit:4;stroke-dasharray:none;stroke-opacity:1"
           d="m 355.69917,391.01743 c -9.88676,-0.93473 -21.75021,-3.36221 -29.51282,-6.03887 -11.49657,-3.96418 -26.474,-12.74749 -39.47151,-23.14754 -13.29722,-10.63984 -20.28536,-18.986 -25.21495,-30.11499 -0.91772,-2.07184 -1.09392,-2.67712 -0.83318,-2.86218 0.74462,-0.52852 6.57011,-3.21932 9.04323,-4.17709 4.9786,-1.92807 11.37343,-3.53813 17.42513,-4.38723 3.71711,-0.52154 15.49047,-0.44841 19.31916,0.11999 13.7722,2.04461 25.95353,7.24858 36.54626,15.61287 3.07671,2.42946 9.49476,8.80534 11.91015,11.83191 6.88969,8.63301 11.92721,19.02079 14.44669,29.79022 0.91223,3.89926 1.81916,10.23874 1.56101,10.91146 -0.19225,0.50099 -2.44402,1.62521 -4.26683,2.13026 -1.70462,0.4723 -7.58039,0.64998 -10.95234,0.33119 z"
           id="path4636"
           transform="scale(0.26458333)" />
        <path
           style="fill:none;stroke:#000000;stroke-width:1.5;stroke-linecap:butt;stroke-linejoin:miter;stroke-miterlimit:4;stroke-dasharray:none;stroke-opacity:1"
           d="m 78.052082,81.364584 c 0,-3.969015 0,-7.937765 0,-11.90625"
           id="path4640" />
        <path
           id="path4644"
           d="m 78.052082,81.364584 c 0,-3.969015 0,-7.937765 0,-11.90625"
           style="fill:none;stroke:#000000;stroke-width:1.5;stroke-linecap:butt;stroke-linejoin:miter;stroke-miterlimit:4;stroke-dasharray:none;stroke-opacity:1"
           transform="translate(0,58.208364)" />
        <path
           id="path4648"
           d="m 78.052082,81.364584 c 0,-3.969015 0,-7.937765 0,-11.90625"
           style="fill:none;stroke:#000000;stroke-width:1.5;stroke-linecap:butt;stroke-linejoin:miter;stroke-miterlimit:4;stroke-dasharray:none;stroke-opacity:1"
           transform="rotate(90,78.713541,105.83854)" />
        <path
           transform="rotate(90,48.947916,76.072918)"
           style="fill:none;stroke:#000000;stroke-width:1.5;stroke-linecap:butt;stroke-linejoin:miter;stroke-miterlimit:4;stroke-dasharray:none;stroke-opacity:1"
           d="m 78.052082,81.364584 c 0,-3.969015 0,-7.937765 0,-11.90625"
           id="path4652" />
        <path
           transform="rotate(129.88808,64.932216,75.062497)"
           style="fill:none;stroke:#000000;stroke-width:1.5;stroke-linecap:butt;stroke-linejoin:miter;stroke-miterlimit:4;stroke-dasharray:none;stroke-opacity:1"
           d="m 78.052082,81.364584 c 0,-3.969015 0,-7.937765 0,-11.90625"
           id="path4668" />
        <path
           id="path4672"
           d="m 78.052082,81.364584 c 0,-3.969015 0,-7.937765 0,-11.90625"
           style="fill:none;stroke:#000000;stroke-width:1.5;stroke-linecap:butt;stroke-linejoin:miter;stroke-miterlimit:4;stroke-dasharray:none;stroke-opacity:1"
           transform="rotate(129.88808,77.597839,104.92129)" />
        <path
           id="path4676"
           d="m 78.052082,81.364584 c 0,-3.969015 0,-7.937765 0,-11.90625"
           style="fill:none;stroke:#000000;stroke-width:1.5;stroke-linecap:butt;stroke-linejoin:miter;stroke-miterlimit:4;stroke-dasharray:none;stroke-opacity:1"
           transform="matrix(0.64129001,0.76729858,0.76729858,-0.64129001,-7.5668359,72.976025)" />
        <path
           transform="matrix(0.64129001,0.76729858,0.76729858,-0.64129001,-49.929056,113.73463)"
           style="fill:none;stroke:#000000;stroke-width:1.5;stroke-linecap:butt;stroke-linejoin:miter;stroke-miterlimit:4;stroke-dasharray:none;stroke-opacity:1"
           d="m 78.052082,81.364584 c 0,-3.969015 0,-7.937765 0,-11.90625"
           id="path4680" />
      </g>
    </g>
  </g>
</svg>
