<?xml version="1.0" encoding="UTF-8" standalone="no"?>
<!-- Uploaded to: SVG Repo, www.svgrepo.com, Generator: SVG Repo Mixer Tools -->

<svg
   xmlns:osb="http://www.openswatchbook.org/uri/2009/osb"
   xmlns:dc="http://purl.org/dc/elements/1.1/"
   xmlns:cc="http://creativecommons.org/ns#"
   xmlns:rdf="http://www.w3.org/1999/02/22-rdf-syntax-ns#"
   xmlns:svg="http://www.w3.org/2000/svg"
   xmlns="http://www.w3.org/2000/svg"
   xmlns:sodipodi="http://sodipodi.sourceforge.net/DTD/sodipodi-0.dtd"
   xmlns:inkscape="http://www.inkscape.org/namespaces/inkscape"
   height="555.08636"
   width="1082.0043"
   version="1.1"
   id="Capa_1"
   viewBox="0 0 586.4896 300.87901"
   xml:space="preserve"
   sodipodi:docname="start_keyboard_cmds.svg"
   style="fill:#000000"
   inkscape:version="0.92.5 (2060ec1f9f, 2020-04-08)"><metadata
   id="metadata19"><rdf:RDF><cc:Work
       rdf:about=""><dc:format>image/svg+xml</dc:format><dc:type
         rdf:resource="http://purl.org/dc/dcmitype/StillImage" /><dc:title></dc:title></cc:Work></rdf:RDF></metadata><defs
   id="defs17"><linearGradient
     osb:paint="solid"
     id="linearGradient2314"><stop
       id="stop2312"
       offset="0"
       style="stop-color:#00bcc3;stop-opacity:1;" /></linearGradient></defs><sodipodi:namedview
   pagecolor="#ffffff"
   bordercolor="#666666"
   borderopacity="1"
   objecttolerance="10"
   gridtolerance="10"
   guidetolerance="10"
   inkscape:pageopacity="0"
   inkscape:pageshadow="2"
   inkscape:window-width="1848"
   inkscape:window-height="1016"
   id="namedview15"
   showgrid="false"
   inkscape:zoom="0.295"
   inkscape:cx="400"
   inkscape:cy="277.54225"
   inkscape:window-x="72"
   inkscape:window-y="27"
   inkscape:window-maximized="1"
   inkscape:current-layer="Capa_1" />
<g
   id="g12"
   transform="translate(0,-66.376)">
	<path
   d="M 411.999,130.626 H 73.567 v -5.002 c 0,-5.375 4.373,-9.749 9.749,-9.749 h 282.935 c 13.646,0 24.749,-11.103 24.749,-24.749 0,-13.647 -11.103,-24.75 -24.749,-24.75 h -68.445 c -4.143,0 -7.5,3.358 -7.5,7.5 0,4.142 3.357,7.5 7.5,7.5 h 68.445 c 5.376,0 9.749,4.374 9.749,9.75 0,5.375 -4.373,9.749 -9.749,9.749 H 83.316 c -13.646,0 -24.749,11.103 -24.749,24.749 v 5.002 H 21.634 C 9.705,130.626 0,140.332 0,152.26 v 193.362 c 0,11.929 9.705,21.633 21.634,21.633 h 390.365 c 11.929,0 21.633,-9.705 21.633,-21.633 V 152.26 c 0,-11.928 -9.704,-21.634 -21.633,-21.634 z m 6.633,214.996 c 0,3.658 -2.976,6.633 -6.633,6.633 H 21.634 C 17.976,352.255 15,349.279 15,345.622 V 152.26 c 0,-3.658 2.976,-6.634 6.634,-6.634 h 390.365 c 3.657,0 6.633,2.976 6.633,6.634 z"
   id="path2"
   inkscape:connector-curvature="0" />
	<path
   d="M 401.132,155.627 H 32.5 c -4.143,0 -7.5,3.358 -7.5,7.5 v 171.628 c 0,4.142 3.357,7.5 7.5,7.5 h 368.632 c 4.143,0 7.5,-3.358 7.5,-7.5 V 163.127 c 0,-4.142 -3.358,-7.5 -7.5,-7.5 z m -115.377,15 h 46.438 v 27.875 h -46.438 z m -184.317,85.816 h 46.438 v 27.937 h -46.438 z m -30.718,-15 v -27.941 h 46.438 v 27.941 z m 61.438,0 v -27.941 h 46.438 v 27.941 z m 30.719,15 h 46.439 v 27.937 h -46.439 z m 30.72,-15 v -27.941 h 46.438 v 27.941 z m 30.719,15 h 46.438 v 27.937 h -46.438 z m 30.719,-15 v -27.941 h 46.438 v 27.941 z m 30.72,15 h 46.438 v 27.937 h -46.438 z m 30.719,-15 v -27.941 h 32.605 v 27.941 z m -92.158,-70.816 h 46.438 v 27.875 h -46.438 z m -61.439,0 h 46.439 v 27.875 h -46.439 z m -61.439,0 h 46.438 v 27.875 h -46.438 z m -61.438,0 h 46.438 v 27.875 H 40 Z m 0,42.875 h 15.72 v 27.941 H 40 Z m 0,42.941 H 86.438 V 284.38 H 40 Z m 15.72,70.812 H 40 V 299.38 h 15.72 z m 61.438,0 H 70.72 V 299.38 h 46.438 z m 61.439,0 H 132.159 V 299.38 h 46.438 z m 61.438,0 H 193.597 V 299.38 h 46.438 z m 61.439,0 H 255.036 V 299.38 h 46.438 z m 61.438,0 H 316.474 V 299.38 h 46.438 z m 30.72,0 h -15.72 V 299.38 h 15.72 z m 0,-42.875 h -46.438 v -27.937 h 9.386 c 4.143,0 7.5,-3.358 7.5,-7.5 v -35.441 h 29.553 v 70.878 z m 0,-85.878 h -46.438 v -27.875 h 46.438 z"
   id="path4"
   inkscape:connector-curvature="0" />
	<path
   d="m 270.119,76.745 c -0.022,-0.052 -0.035,-0.082 -0.043,-0.102 0.038,0.09 0.174,0.41 0.043,0.102 z"
   id="path6"
   inkscape:connector-curvature="0" />
	<path
   d="m 282.35,79.185 c 4.21,-4.337 1.792,-11.93 -4.298,-12.735 -5.578,-0.738 -10.16,5.034 -7.932,10.295 2.061,4.874 8.44,6.114 12.23,2.44 z"
   id="path8"
   inkscape:connector-curvature="0" />
	<path
   d="m 270.076,76.643 c -0.011,-0.027 -0.015,-0.035 0,0 z"
   id="path10"
   inkscape:connector-curvature="0" />
</g>
<g
   transform="matrix(5.0761248,0,0,5.0761248,69.484325,-262.11795)"
   id="layer1"
   inkscape:label="Layer 1"><g
     id="g2434"><g
       transform="translate(17.860801,-3.0906123)"
       id="g927"><g
         id="g1144"><g
           id="g983"
           transform="matrix(0.7800092,0,0,0.7800092,1.6277664,21.717555)"><circle
             r="15.875"
             cy="85.250694"
             cx="88.965836"
             id="path819"
             style="opacity:1;fill:#ffffff;fill-opacity:0;fill-rule:nonzero;stroke:#000000;stroke-width:1.5;stroke-linecap:square;stroke-miterlimit:4;stroke-dasharray:none;stroke-opacity:1" /></g><g
           transform="translate(-57.824385,-30.304435)"
           id="layer1-6"
           inkscape:label="Layer 1"><g
             id="g2516"><g
               id="g2398"
               transform="translate(-17.727067,34.395834)"><path
                 inkscape:connector-curvature="0"
                 id="path2394"
                 d="m 141.55208,91.947917 c -0.37288,-0.166439 -0.7525,-0.57903 -0.96355,-1.047245 -0.15736,-0.349089 -0.17249,-0.832781 -0.19804,-6.329018 -0.0167,-3.597069 0.009,-6.188089 0.0656,-6.550316 0.19446,-1.249067 0.71767,-1.86766 1.56842,-1.854338 0.42486,0.0066 1.08348,0.313505 6.5357,3.045002 5.42812,2.719419 6.12286,3.09281 6.63249,3.564639 0.8477,0.784823 0.94843,1.282835 0.4163,2.05831 -0.56453,0.822711 -1.50796,1.372171 -7.50461,4.370782 -3.46175,1.731036 -5.85464,2.874642 -6.01028,2.872417 -0.14222,-0.0021 -0.38616,-0.06064 -0.54207,-0.130233 z"
                 style="opacity:1;fill:#000000;fill-opacity:1;fill-rule:nonzero;stroke:#4e6fc3;stroke-width:0.18142855;stroke-linecap:square;stroke-miterlimit:4;stroke-dasharray:none;stroke-opacity:0.49523812" /></g></g></g></g></g></g></g></svg>