<?xml version="1.0" encoding="UTF-8" standalone="no"?>
<svg
   xmlns:dc="http://purl.org/dc/elements/1.1/"
   xmlns:cc="http://creativecommons.org/ns#"
   xmlns:rdf="http://www.w3.org/1999/02/22-rdf-syntax-ns#"
   xmlns:svg="http://www.w3.org/2000/svg"
   xmlns="http://www.w3.org/2000/svg"
   xmlns:sodipodi="http://sodipodi.sourceforge.net/DTD/sodipodi-0.dtd"
   xmlns:inkscape="http://www.inkscape.org/namespaces/inkscape"
   id="svg8"
   version="1.1"
   viewBox="0 0 71.4375 70.114616"
   height="70.114616mm"
   width="71.4375mm"
   sodipodi:docname="dayshift.svg"
   inkscape:version="0.92.5 (2060ec1f9f, 2020-04-08)">
  <sodipodi:namedview
     pagecolor="#ffffff"
     bordercolor="#666666"
     borderopacity="1"
     objecttolerance="10"
     gridtolerance="10"
     guidetolerance="10"
     inkscape:pageopacity="0"
     inkscape:pageshadow="2"
     inkscape:window-width="1848"
     inkscape:window-height="1016"
     id="namedview1086"
     showgrid="false"
     inkscape:zoom="3.5622625"
     inkscape:cx="135"
     inkscape:cy="132.50006"
     inkscape:window-x="72"
     inkscape:window-y="27"
     inkscape:window-maximized="1"
     inkscape:current-layer="g4746" />
  <defs
     id="defs2" />
  <metadata
     id="metadata5">
    <rdf:RDF>
      <cc:Work
         rdf:about="">
        <dc:format>image/svg+xml</dc:format>
        <dc:type
           rdf:resource="http://purl.org/dc/dcmitype/StillImage" />
        <dc:title></dc:title>
      </cc:Work>
    </rdf:RDF>
  </metadata>
  <g
     transform="translate(-43.65625,-69.458334)"
     id="layer1">
    <g
       id="g4733">
      <g
         id="g4746">
        <g
           id="g5427">
          <circle
             style="opacity:1;fill:#ffffff;fill-opacity:0;fill-rule:nonzero;stroke:#000000;stroke-width:1.5;stroke-linecap:square;stroke-miterlimit:4;stroke-dasharray:none;stroke-opacity:1"
             id="path4518"
             cx="78.430054"
             cy="104.42113"
             r="20.599701" />
          <path
             style="fill:none;stroke:#000000;stroke-width:1.5;stroke-linecap:butt;stroke-linejoin:miter;stroke-miterlimit:4;stroke-dasharray:none;stroke-opacity:1"
             d="m 67.657738,86.089285 c 0.88189,2.267717 1.763834,4.535572 4.283855,7.181585 2.52002,2.646014 6.677503,5.669638 10.016347,7.49652 3.338844,1.82689 5.858714,2.45686 8.18951,2.89781 2.330795,0.44096 4.47282,0.69296 5.858738,0.62988 1.385919,-0.0631 2.015949,-0.4411 2.645596,-0.81889"
             id="path4524" />
        </g>
        <path
           id="path4640"
           d="m 78.052082,81.364584 c 0,-3.969015 0,-7.937765 0,-11.90625"
           style="fill:none;stroke:#000000;stroke-width:1.5;stroke-linecap:butt;stroke-linejoin:miter;stroke-miterlimit:4;stroke-dasharray:none;stroke-opacity:1" />
        <path
           transform="translate(0,58.208364)"
           style="fill:none;stroke:#000000;stroke-width:1.5;stroke-linecap:butt;stroke-linejoin:miter;stroke-miterlimit:4;stroke-dasharray:none;stroke-opacity:1"
           d="m 78.052082,81.364584 c 0,-3.969015 0,-7.937765 0,-11.90625"
           id="path4644" />
        <path
           transform="rotate(90,78.713541,105.83854)"
           style="fill:none;stroke:#000000;stroke-width:1.5;stroke-linecap:butt;stroke-linejoin:miter;stroke-miterlimit:4;stroke-dasharray:none;stroke-opacity:1"
           d="m 78.052082,81.364584 c 0,-3.969015 0,-7.937765 0,-11.90625"
           id="path4648" />
        <path
           id="path4652"
           d="m 78.052082,81.364584 c 0,-3.969015 0,-7.937765 0,-11.90625"
           style="fill:none;stroke:#000000;stroke-width:1.5;stroke-linecap:butt;stroke-linejoin:miter;stroke-miterlimit:4;stroke-dasharray:none;stroke-opacity:1"
           transform="rotate(90,48.947916,76.072918)" />
        <path
           id="path4668"
           d="m 78.052082,81.364584 c 0,-3.969015 0,-7.937765 0,-11.90625"
           style="fill:none;stroke:#000000;stroke-width:1.5;stroke-linecap:butt;stroke-linejoin:miter;stroke-miterlimit:4;stroke-dasharray:none;stroke-opacity:1"
           transform="rotate(129.88808,64.932216,75.062497)" />
        <path
           transform="rotate(129.88808,77.597839,104.92129)"
           style="fill:none;stroke:#000000;stroke-width:1.5;stroke-linecap:butt;stroke-linejoin:miter;stroke-miterlimit:4;stroke-dasharray:none;stroke-opacity:1"
           d="m 78.052082,81.364584 c 0,-3.969015 0,-7.937765 0,-11.90625"
           id="path4672" />
        <path
           transform="matrix(0.64129001,0.76729858,0.76729858,-0.64129001,-7.5668359,72.976025)"
           style="fill:none;stroke:#000000;stroke-width:1.5;stroke-linecap:butt;stroke-linejoin:miter;stroke-miterlimit:4;stroke-dasharray:none;stroke-opacity:1"
           d="m 78.052082,81.364584 c 0,-3.969015 0,-7.937765 0,-11.90625"
           id="path4676" />
        <path
           id="path4680"
           d="m 78.052082,81.364584 c 0,-3.969015 0,-7.937765 0,-11.90625"
           style="fill:none;stroke:#000000;stroke-width:1.5;stroke-linecap:butt;stroke-linejoin:miter;stroke-miterlimit:4;stroke-dasharray:none;stroke-opacity:1"
           transform="matrix(0.64129001,0.76729858,0.76729858,-0.64129001,-49.929056,113.73463)" />
        <path
           style="opacity:1;fill:#ffffff;fill-opacity:0;fill-rule:nonzero;stroke:#000000;stroke-width:1.59148622;stroke-linecap:square;stroke-miterlimit:4;stroke-dasharray:none;stroke-opacity:1"
           d="m 124.85809,206.76798 c -6.386,-0.6171 -13.49352,-2.21625 -19.28881,-4.33988 -4.43899,-1.62662 -11.447646,-5.2109 -15.5407,-7.94763 -17.709066,-11.84076 -29.487913,-30.3536 -32.719504,-51.42532 -0.618448,-4.03261 -0.847391,-13.92222 -0.419842,-18.13586 1.712054,-16.87287 8.903063,-32.484889 20.536878,-44.586518 4.169715,-4.337386 12.277739,-10.963967 12.789232,-10.452472 0.08515,0.08515 0.814954,1.583323 1.621789,3.329278 2.406336,5.207201 5.774137,10.559359 9.239787,14.684002 10.21771,12.16062 30.04542,27.11163 46.92044,35.38019 10.64436,5.21561 20.06003,7.99472 34.22289,10.10119 11.54524,1.71714 18.53361,1.62389 23.58108,-0.31467 0.51677,-0.19847 0.53031,-0.0744 0.35957,3.29449 -1.34818,26.60036 -17.36799,50.86384 -41.48156,62.82766 -7.17216,3.55842 -14.47271,5.85712 -22.33319,7.03198 -4.48902,0.67095 -13.36562,0.95192 -17.48806,0.55356 z"
           id="path5429"
           inkscape:connector-curvature="0"
           transform="matrix(0.26458333,0,0,0.26458333,43.65625,69.458334)" />
        <path
           style="opacity:1;fill:#ffffff;fill-opacity:0;fill-rule:nonzero;stroke:#000000;stroke-width:1.59148622;stroke-linecap:square;stroke-miterlimit:4;stroke-dasharray:none;stroke-opacity:1"
           d="m 122.73252,205.61499 c -3.9912,-0.50885 -10.50756,-2.01161 -14.71085,-3.39253 -5.32831,-1.75053 -12.565839,-5.32576 -17.631392,-8.70965 -16.690641,-11.14968 -28.16819,-28.69054 -31.822122,-48.63297 -0.72091,-3.93459 -1.103632,-12.72109 -0.7897,-18.12987 1.011384,-17.42525 9.297131,-35.198197 22.152121,-47.516353 3.207838,-3.073877 9.181002,-8.032591 9.676923,-8.033445 0.154396,-2.66e-4 0.832869,1.191895 1.507721,2.649246 5.571038,12.030769 14.866839,22.303043 31.331199,34.622372 14.21489,10.63618 28.83223,18.36607 41.72122,22.06286 13.99166,4.01307 32.49667,6.00807 39.21906,4.22817 0.97446,-0.25801 1.82264,-0.41821 1.88486,-0.35599 0.21808,0.21808 -0.4331,6.85745 -1.00881,10.2858 -3.30703,19.69313 -15.03735,37.66478 -31.91774,48.90015 -10.15568,6.7595 -22.07016,11.04401 -33.53306,12.05868 -3.79128,0.3356 -13.33079,0.31396 -16.07943,-0.0365 z"
           id="path5431"
           inkscape:connector-curvature="0"
           transform="matrix(0.26458333,0,0,0.26458333,43.65625,69.458334)" />
        <path
           style="opacity:1;fill:#ffffff;fill-opacity:0;fill-rule:nonzero;stroke:#000000;stroke-width:1.59148622;stroke-linecap:square;stroke-miterlimit:4;stroke-dasharray:none;stroke-opacity:1"
           d="m 125.82044,204.79353 c -10.83269,-0.45769 -23.86836,-4.90376 -34.217105,-11.67041 -11.944014,-7.80973 -21.742099,-19.44718 -27.264329,-32.38258 -2.375095,-5.56347 -4.304171,-12.23846 -5.05734,-17.49939 -0.602948,-4.21163 -0.837057,-13.94994 -0.436377,-18.15211 1.578164,-16.55118 8.941913,-32.226704 20.645646,-43.949268 3.367305,-3.372723 9.271748,-8.539739 9.763104,-8.543757 0.114391,-9.36e-4 0.85469,1.293122 1.645115,2.875684 3.695853,7.399735 7.476745,12.507303 14.415286,19.473467 13.84386,13.898974 33.32585,26.920934 50.29124,33.615174 8.36651,3.30128 18.11243,5.6062 30.00822,7.09698 4.7901,0.60029 15.66495,0.71074 17.38889,0.17661 0.6089,-0.18866 1.17293,-0.27718 1.2534,-0.19671 0.23562,0.23563 -0.77005,8.42823 -1.41025,11.48838 -1.7291,8.26511 -5.44087,17.28407 -9.98241,24.2555 -5.86463,9.00242 -14.44741,17.42077 -23.28499,22.83887 -10.02976,6.14899 -22.15096,10.103 -32.1082,10.47389 -1.92995,0.0719 -4.39328,0.16375 -5.47405,0.20414 -1.08077,0.0404 -3.85991,-0.007 -6.17585,-0.10447 z"
           id="path5433"
           inkscape:connector-curvature="0"
           transform="matrix(0.26458333,0,0,0.26458333,43.65625,69.458334)" />
        <path
           style="opacity:1;fill:#ffffff;fill-opacity:0;fill-rule:nonzero;stroke:#000000;stroke-width:1.59148622;stroke-linecap:square;stroke-miterlimit:4;stroke-dasharray:none;stroke-opacity:1"
           d="m 123.23822,203.6934 c -9.51903,-1.00903 -21.02729,-5.06187 -29.663045,-10.44639 -6.332052,-3.94812 -14.297874,-11.07408 -18.709562,-16.73696 -8.184629,-10.50585 -13.736971,-23.8444 -14.894242,-35.78087 -0.507056,-5.22994 -0.201664,-17.26823 0.535633,-21.11419 2.854893,-14.89195 9.474161,-27.537406 19.837342,-37.897261 3.514328,-3.513201 8.477134,-7.911476 8.674256,-7.687542 0.05233,0.05945 0.951064,1.687142 1.997185,3.617095 2.240793,4.133967 4.179179,7.106311 6.773566,10.386658 2.611787,3.30235 11.846617,12.47966 16.212947,16.11197 15.96778,13.28343 33.96546,23.50969 49.23318,27.97423 12.57065,3.67587 30.09433,5.85336 38.57153,4.7929 1.59422,-0.19943 1.59553,-0.19898 1.48003,0.51495 -0.0636,0.393 -0.25586,1.91463 -0.42728,3.3814 -1.52353,13.03617 -6.74511,25.48111 -15.07627,35.93222 -2.59836,3.25954 -8.34836,9.02598 -11.57372,11.60681 -9.62588,7.70232 -21.91154,13.14171 -33.68646,14.91444 -3.46957,0.52234 -15.81825,0.79803 -19.28509,0.43054 z"
           id="path5435"
           inkscape:connector-curvature="0"
           transform="matrix(0.26458333,0,0,0.26458333,43.65625,69.458334)" />
        <path
           style="opacity:1;fill:#ffffff;fill-opacity:0;fill-rule:nonzero;stroke:#000000;stroke-width:1.59148622;stroke-linecap:square;stroke-miterlimit:4;stroke-dasharray:none;stroke-opacity:1"
           d="m 120.01116,202.27448 c -9.74476,-1.71647 -19.92002,-5.7554 -27.663517,-10.98066 -5.774536,-3.89662 -13.687725,-11.2978 -17.435007,-16.30691 -7.242641,-9.68146 -12.170183,-21.30604 -13.833038,-32.63356 -0.464036,-3.16105 -0.449836,-15.91558 0.02235,-20.07151 0.3958,-3.48365 2.07686,-10.27617 3.513,-14.19468 1.465115,-3.99757 5.133841,-11.305532 7.318999,-14.579171 2.679847,-4.014744 5.698162,-7.678871 9.250124,-11.229323 3.99316,-3.991463 7.504128,-7.093022 7.626054,-6.736787 0.311672,0.91064 4.448192,7.825863 5.972962,9.985291 2.550918,3.612694 5.033677,6.359497 11.274793,12.47389 17.51759,17.16188 40.98007,31.07829 60.74775,36.03159 10.48518,2.62733 22.13926,4.11361 30.80934,3.92919 2.58628,-0.055 4.70153,-0.0368 4.70054,0.0403 -0.0141,1.10511 -1.31488,8.5289 -1.94293,11.08846 -2.40351,9.79531 -7.0458,19.19368 -13.38944,27.10706 -2.41785,3.01616 -8.56279,9.16214 -11.46531,11.46725 -10.32049,8.19632 -24.0708,13.93544 -35.69512,14.89849 -5.75129,0.47648 -16.34304,0.32199 -19.81155,-0.28896 z"
           id="path5437"
           inkscape:connector-curvature="0"
           transform="matrix(0.26458333,0,0,0.26458333,43.65625,69.458334)" />
        <path
           style="opacity:1;fill:#ffffff;fill-opacity:0;fill-rule:nonzero;stroke:#000000;stroke-width:1.59148622;stroke-linecap:square;stroke-miterlimit:4;stroke-dasharray:none;stroke-opacity:1"
           d="m 124.13612,201.72792 c -8.62695,-0.55815 -19.58138,-4.20848 -28.541074,-9.51069 -5.070854,-3.00085 -12.515717,-9.28611 -17.132024,-14.46356 -7.156947,-8.02692 -13.441751,-20.7032 -15.816051,-31.90055 -0.657898,-3.10269 -0.758958,-4.32788 -0.890713,-10.7985 -0.176107,-8.64876 0.151454,-13.19059 1.31152,-18.18503 2.753371,-11.85411 8.255977,-22.370718 16.483055,-31.502495 2.56681,-2.849071 8.312935,-8.281254 8.759854,-8.281254 0.134478,0 0.898872,1.133819 1.698653,2.519597 4.521329,7.834104 8.213637,12.325124 16.58175,20.168677 12.14819,11.386675 24.37152,19.975415 38.03762,26.727195 8.85516,4.37492 15.14531,6.72454 23.2998,8.70341 9.39766,2.28055 17.17745,3.32434 26.48857,3.55391 l 6.83814,0.1686 -0.18891,1.43234 c -0.48422,3.67145 -1.97257,10.1974 -3.0867,13.53422 -2.44864,7.33371 -5.81838,13.76633 -10.4983,20.04061 -2.93473,3.93453 -10.08216,11.13762 -13.89581,14.00403 -9.10919,6.84662 -20.68972,11.82094 -31.06219,13.34251 -3.60241,0.52845 -13.43401,0.76745 -18.38719,0.44698 z"
           id="path5439"
           inkscape:connector-curvature="0"
           transform="matrix(0.26458333,0,0,0.26458333,43.65625,69.458334)" />
        <path
           style="opacity:1;fill:#ffffff;fill-opacity:0;fill-rule:nonzero;stroke:#000000;stroke-width:1.59148622;stroke-linecap:square;stroke-miterlimit:4;stroke-dasharray:none;stroke-opacity:1"
           d="m 122.59216,200.70795 c -9.09766,-1.12172 -20.48983,-5.32604 -28.212412,-10.4119 -5.483443,-3.61123 -12.740864,-10.09671 -16.505562,-14.74993 -6.450195,-7.97254 -11.774213,-18.92238 -14.113926,-29.02794 -0.89,-3.84404 -1.349144,-13.51642 -0.962856,-20.28365 0.731766,-12.81953 5.538295,-25.06714 14.330678,-36.516267 1.92573,-2.507617 10.369518,-11.228819 10.87164,-11.228819 0.12696,0 1.14243,1.502331 2.256599,3.338514 4.866289,8.019787 11.003309,14.803631 21.778119,24.073472 16.07095,13.82625 35.39609,24.65301 52.26456,29.28082 10.66314,2.9254 21.83339,4.50179 31.9121,4.50357 l 3.85991,6.9e-4 v 0.71966 c 0,2.11447 -2.27448,11.34994 -3.81061,15.47286 -3.97784,10.67645 -9.86115,19.20987 -19.06811,27.65727 -7.32286,6.71873 -16.53153,11.88295 -26.66845,14.95567 -6.05195,1.83447 -8.72163,2.16185 -18.38719,2.25479 -4.70908,0.0453 -9.00411,0.0278 -9.54449,-0.0388 z"
           id="path5441"
           inkscape:connector-curvature="0"
           transform="matrix(0.26458333,0,0,0.26458333,43.65625,69.458334)" />
        <path
           style="opacity:1;fill:#ffffff;fill-opacity:0;fill-rule:nonzero;stroke:#000000;stroke-width:1.59148622;stroke-linecap:square;stroke-miterlimit:4;stroke-dasharray:none;stroke-opacity:1"
           d="m 118.52171,199.0769 c -6.28481,-1.38469 -11.86009,-3.34627 -17.73378,-6.23935 -10.174794,-5.01159 -21.096089,-15.06501 -27.135817,-24.97944 -4.473797,-7.34389 -8.297004,-17.0357 -9.341277,-23.68008 -0.589132,-3.74845 -0.840272,-15.86067 -0.413395,-19.93758 1.279681,-12.22166 6.402947,-24.523029 14.260863,-34.241467 2.033055,-2.514423 9.503029,-10.305826 9.689023,-10.105937 0.07183,0.0772 1.338419,1.972061 2.814639,4.210807 3.399481,5.155447 5.632801,7.928025 10.032384,12.454805 16.79959,17.285282 38.54335,31.343832 59.06747,38.190392 9.77847,3.26197 22.36273,5.41348 33.34623,5.70116 l 6.09055,0.15952 -0.15594,0.87181 c -0.42536,2.37824 -1.59248,7.31238 -2.35782,9.96801 -3.51772,12.20607 -10.94307,23.47369 -21.40482,32.48085 -6.41503,5.52308 -14.91603,10.31056 -23.08528,13.00085 -7.56036,2.48976 -8.32485,2.5926 -20.19845,2.7171 -10.16066,0.10653 -10.45384,0.0941 -13.47458,-0.57145 z"
           id="path5443"
           inkscape:connector-curvature="0"
           transform="matrix(0.26458333,0,0,0.26458333,43.65625,69.458334)" />
        <path
           style="opacity:1;fill:#ffffff;fill-opacity:0;fill-rule:nonzero;stroke:#000000;stroke-width:1.59148622;stroke-linecap:square;stroke-miterlimit:4;stroke-dasharray:none;stroke-opacity:1"
           d="m 119.92531,198.45874 c -0.30879,-0.0782 -2.05438,-0.51438 -3.8791,-0.96937 -9.34959,-2.33133 -18.568594,-6.81716 -25.596549,-12.45491 -5.597505,-4.49026 -11.189077,-10.47053 -14.712286,-15.735 -4.46692,-6.6746 -8.946017,-17.1893 -10.283158,-24.13976 -1.026656,-5.33657 -1.030609,-19.88657 -0.0069,-25.2215 1.642939,-8.56158 5.006552,-16.94918 9.642212,-24.044087 2.523184,-3.861751 4.560006,-6.347357 8.949046,-10.920839 l 3.610732,-3.762467 2.081099,3.147442 c 3.0462,4.607054 4.728025,6.778804 8.241862,10.642771 7.234862,7.95576 18.382752,17.40092 28.391592,24.05504 10.36793,6.89286 22.44976,12.93809 33.00263,16.5131 10.02184,3.39512 24.71068,5.80167 35.41154,5.80167 1.83034,0 3.32638,0.0947 3.32455,0.21054 -0.0136,0.86385 -2.17639,9.20354 -3.13195,12.07702 -4.45235,13.38891 -14.28194,26.01132 -26.76145,34.36505 -4.44847,2.97779 -11.31744,6.32509 -16.56251,8.07104 -7.0874,2.35921 -6.69279,2.31073 -19.65043,2.41433 -6.33025,0.0506 -11.76219,0.0281 -12.07098,-0.0501 z"
           id="path5445"
           inkscape:connector-curvature="0"
           transform="matrix(0.26458333,0,0,0.26458333,43.65625,69.458334)" />
        <path
           style="opacity:1;fill:#ffffff;fill-opacity:0;fill-rule:nonzero;stroke:#000000;stroke-width:1.59148622;stroke-linecap:square;stroke-miterlimit:4;stroke-dasharray:none;stroke-opacity:1"
           d="m 116.69703,196.69561 c -5.78341,-1.5076 -11.49901,-3.68594 -15.99741,-6.09694 -9.224133,-4.94385 -18.458272,-13.31628 -24.280416,-22.01464 -4.36545,-6.52204 -9.314141,-18.46385 -10.234953,-24.69821 -0.505393,-3.42178 -0.69149,-14.25297 -0.326175,-18.98411 0.882497,-11.42909 6.154236,-24.28666 13.792543,-33.639485 1.879396,-2.301252 7.53125,-8.281254 7.826827,-8.281254 0.111784,0 1.165552,1.421148 2.341705,3.158106 3.015175,4.452844 5.394168,7.336077 9.753925,11.821325 7.681854,7.902968 16.842404,15.522738 26.107004,21.715888 11.56785,7.73283 26.06009,14.71323 37.16183,17.89957 9.4973,2.72584 22.13236,4.63378 30.70234,4.63617 1.97467,5.6e-4 3.43883,0.11407 3.43883,0.26661 0,0.51503 -1.97849,7.91051 -2.81438,10.51998 -4.47313,13.96421 -15.95164,28.12652 -28.99945,35.77985 -7.11316,4.1723 -16.34095,7.78933 -21.53318,8.44038 -1.32685,0.16637 -7.09915,0.28492 -13.17638,0.2706 l -10.8151,-0.0255 z"
           id="path5447"
           inkscape:connector-curvature="0"
           transform="matrix(0.26458333,0,0,0.26458333,43.65625,69.458334)" />
        <path
           style="opacity:1;fill:#ffffff;fill-opacity:0;fill-rule:nonzero;stroke:#000000;stroke-width:1.59148622;stroke-linecap:square;stroke-miterlimit:4;stroke-dasharray:none;stroke-opacity:1"
           d="M 116.55667,195.68977 C 103.90951,192.14421 94.995893,187.13114 86.133303,178.5795 79.110016,171.80262 74.2793,164.39192 70.293149,154.27944 c -3.264948,-8.28285 -3.672342,-11.01215 -3.484361,-23.34312 0.114562,-7.5149 0.219859,-9.20082 0.723525,-11.58445 1.241611,-5.876 3.051711,-11.00654 5.849604,-16.58011 2.844993,-5.667379 6.107882,-10.20838 11.080054,-15.420234 l 2.927422,-3.068539 1.943589,2.787818 c 9.19676,13.191525 26.654698,28.422205 44.207268,38.567385 8.47101,4.89614 20.61722,10.31925 27.93169,12.47109 9.44674,2.77914 20.0496,4.5401 29.27499,4.8621 2.66877,0.0931 4.90877,0.26071 4.97777,0.37237 0.15823,0.25601 -2.09472,8.41312 -3.09916,11.22094 -2.94447,8.23099 -9.47214,17.91983 -16.70936,24.80123 -7.53625,7.16573 -17.50116,12.834 -27.98833,15.92042 -2.68129,0.78912 -3.59846,0.91388 -8.21175,1.11705 -2.85633,0.12579 -8.47775,0.22917 -12.49206,0.22974 l -7.29873,0.001 -3.36864,-0.94438 z"
           id="path5449"
           inkscape:connector-curvature="0"
           transform="matrix(0.26458333,0,0,0.26458333,43.65625,69.458334)" />
        <path
           style="opacity:1;fill:#ffffff;fill-opacity:0;fill-rule:nonzero;stroke:#000000;stroke-width:1.59148622;stroke-linecap:square;stroke-miterlimit:4;stroke-dasharray:none;stroke-opacity:1"
           d="m 116.69703,194.75464 c -13.10888,-3.89583 -21.124383,-8.44459 -29.999465,-17.02455 -7.68894,-7.43325 -12.855167,-15.85771 -16.865522,-27.50225 -1.804685,-5.24012 -2.044462,-7.32037 -2.01963,-17.52185 0.02349,-9.6483 0.214601,-11.80652 1.465652,-16.55131 2.865032,-10.86605 8.139198,-20.157768 16.07042,-28.311931 l 1.960758,-2.015873 1.543137,2.156234 c 11.126568,15.54722 31.56475,32.34576 51.52563,42.34993 16.4631,8.25112 30.37857,12.20599 46.77985,13.29515 2.54754,0.16918 5.28051,0.36937 6.07327,0.44487 l 1.44138,0.13728 -0.69794,2.58051 c -2.26432,8.37196 -4.61205,13.70358 -8.73849,19.84482 -8.48009,12.62067 -19.34423,21.19342 -33.40785,26.36172 -5.79706,2.13038 -6.68091,2.2629 -17.02473,2.55264 -14.33092,0.40143 -14.03574,0.41439 -18.10647,-0.79539 z"
           id="path5451"
           inkscape:connector-curvature="0"
           transform="matrix(0.26458333,0,0,0.26458333,43.65625,69.458334)" />
        <path
           style="opacity:1;fill:#ffffff;fill-opacity:0;fill-rule:nonzero;stroke:#000000;stroke-width:1.59148622;stroke-linecap:square;stroke-miterlimit:4;stroke-dasharray:none;stroke-opacity:1"
           d="m 120.90783,194.68892 c -2.92388,-0.26409 -11.43244,-3.15064 -16.50707,-5.60006 -12.363718,-5.9677 -22.890159,-16.20312 -29.037851,-28.23503 -2.678894,-5.24298 -5.159221,-11.73671 -5.994156,-15.69327 -0.576591,-2.73234 -0.841158,-15.8981 -0.424422,-21.12073 0.946855,-11.86622 7.057281,-24.93737 16.112196,-34.466487 2.119268,-2.230253 2.131857,-2.238173 2.576398,-1.620809 11.489536,15.956316 31.167465,32.288786 51.381375,42.645996 17.1984,8.81212 30.32848,12.58643 48.67532,13.99199 2.9944,0.2294 5.50467,0.4774 5.57839,0.55112 0.18943,0.18943 -0.94178,4.27941 -2.10156,7.59837 -3.49899,10.013 -10.88447,20.53789 -19.44821,27.71519 -6.99655,5.86384 -16.95059,11.1109 -24.96819,13.16146 -3.10151,0.79323 -20.80082,1.52763 -25.84222,1.07226 z"
           id="path5453"
           inkscape:connector-curvature="0"
           transform="matrix(0.26458333,0,0,0.26458333,43.65625,69.458334)" />
        <path
           style="opacity:1;fill:#ffffff;fill-opacity:0;fill-rule:nonzero;stroke:#000000;stroke-width:1.59148622;stroke-linecap:square;stroke-miterlimit:4;stroke-dasharray:none;stroke-opacity:1"
           d="m 118.66207,193.28588 c -14.27566,-3.72091 -26.141314,-11.08092 -35.044878,-21.7376 -4.400109,-5.26649 -8.649534,-12.77596 -11.265604,-19.90826 -2.058783,-5.61294 -2.237642,-6.61287 -2.515438,-14.0627 -0.484603,-12.99589 0.329806,-19.55355 3.416122,-27.50682 2.75732,-7.10546 7.225682,-14.23851 12.254278,-19.562052 l 1.574465,-1.666814 2.94222,3.73678 c 3.579593,4.546278 13.564555,14.637626 18.673255,18.872206 10.92799,9.05816 21.48811,15.89223 33.68353,21.79855 15.56451,7.53801 26.65962,10.5732 44.63748,12.21108 2.77914,0.2532 5.08611,0.49092 5.12661,0.52826 0.13953,0.12867 -1.35958,5.01196 -2.36489,7.70351 -4.41931,11.83193 -13.86744,23.39555 -25.09141,30.70953 -6.65116,4.33416 -15.30139,8.00244 -20.30919,8.61246 -3.65629,0.4454 -12.51198,0.8498 -18.27746,0.83465 -4.3549,-0.0115 -5.72005,-0.11472 -7.43909,-0.56278 z"
           id="path5455"
           inkscape:connector-curvature="0"
           transform="matrix(0.26458333,0,0,0.26458333,43.65625,69.458334)" />
        <path
           style="opacity:1;fill:#ffffff;fill-opacity:0;fill-rule:nonzero;stroke:#000000;stroke-width:1.59148622;stroke-linecap:square;stroke-miterlimit:4;stroke-dasharray:none;stroke-opacity:1"
           d="m 121.32891,192.75114 c -4.88867,-0.47248 -14.43533,-4.18074 -21.15229,-8.21628 -5.50198,-3.30558 -12.162001,-9.07583 -16.123139,-13.9691 C 79.105683,164.45365 74.093905,154.87357 71.92037,147.37315 70.772252,143.41124 70.253923,130.9783 70.942848,123.92572 72.0523,112.5682 77.350783,100.98768 85.659765,91.760016 l 1.321176,-1.467252 2.552927,3.126114 c 2.979685,3.648687 10.723282,11.651692 15.436322,15.953452 15.45944,14.11033 38.63732,27.33569 57.288,32.68866 7.04694,2.02256 14.99094,3.40046 25.22501,4.37532 l 3.55361,0.33851 -0.41463,1.39621 c -3.90993,13.16617 -11.8657,24.54957 -23.06737,33.00565 -7.40735,5.59176 -17.6375,10.23911 -24.18934,10.98871 -2.70552,0.30955 -15.70051,0.87925 -18.52755,0.81226 -0.84918,-0.0201 -2.42823,-0.12205 -3.50901,-0.22651 z"
           id="path5457"
           inkscape:connector-curvature="0"
           transform="matrix(0.26458333,0,0,0.26458333,43.65625,69.458334)" />
        <path
           style="opacity:1;fill:#ffffff;fill-opacity:0;fill-rule:nonzero;stroke:#000000;stroke-width:1.59148622;stroke-linecap:square;stroke-miterlimit:4;stroke-dasharray:none;stroke-opacity:1"
           d="m 122.17107,191.84815 c -4.21304,-0.33502 -10.54159,-2.4792 -17.2643,-5.84933 -9.068359,-4.54601 -17.704699,-12.09674 -23.052145,-20.15442 -4.354953,-6.56216 -8.485863,-15.60112 -9.388616,-20.54348 -0.211511,-1.15798 -0.536569,-4.78393 -0.722353,-8.05768 -0.391718,-6.90261 -0.06527,-13.55815 0.892197,-18.18969 1.370878,-6.63134 4.387132,-13.71566 8.366455,-19.650431 2.263588,-3.375919 5.480019,-7.439093 5.888826,-7.439093 0.119889,0 1.4749,1.476132 3.011135,3.280293 3.637838,4.272292 12.868551,13.546341 16.969541,17.049201 9.28803,7.93338 20.92113,15.60722 32.56357,21.48075 16.45975,8.30382 28.30008,11.64117 48.3541,13.62925 1.04218,0.10331 1.89487,0.28325 1.89487,0.39986 0,0.3593 -1.12949,3.67542 -1.98787,5.83623 -4.46036,11.22833 -13.18325,21.88256 -23.5577,28.77365 -5.74764,3.8178 -14.74825,7.79262 -19.51007,8.61598 -3.38208,0.58479 -18.47896,1.1353 -22.45764,0.81891 z"
           id="path5459"
           inkscape:connector-curvature="0"
           transform="matrix(0.26458333,0,0,0.26458333,43.65625,69.458334)" />
        <path
           style="opacity:1;fill:#ffffff;fill-opacity:0;fill-rule:nonzero;stroke:#000000;stroke-width:1.59148622;stroke-linecap:square;stroke-miterlimit:4;stroke-dasharray:none;stroke-opacity:1"
           d="m 120.21245,190.62526 c -7.9109,-1.50349 -19.3374,-7.17895 -26.527487,-13.176 -2.784506,-2.32248 -7.321868,-7.0539 -9.298018,-9.69569 -5.151781,-6.88709 -10.402182,-18.13452 -11.201832,-23.99662 -0.491797,-3.60527 -0.688328,-16.67014 -0.301932,-20.07164 1.10754,-9.74986 5.173369,-19.23034 12.015137,-28.016269 0.998132,-1.281762 1.904341,-2.292356 2.013797,-2.245764 0.109457,0.04659 1.253337,1.284792 2.541957,2.751556 3.657554,4.163187 15.275328,15.616377 18.540618,18.277957 10.35539,8.4408 21.30078,15.38949 33.743,21.42172 14.21112,6.88984 24.07628,9.76057 40.64793,11.82839 3.31952,0.41421 6.07235,0.78539 6.1174,0.82484 0.0451,0.0395 -0.43382,1.44548 -1.06417,3.12452 -5.40992,14.4101 -16.16745,26.42945 -29.93614,33.44751 -3.89002,1.98278 -8.30581,3.78581 -11.14454,4.55048 -2.56841,0.69184 -7.73448,1.08011 -16.748,1.25874 -5.68928,0.11275 -7.61795,0.0545 -9.39772,-0.28373 z"
           id="path5461"
           inkscape:connector-curvature="0"
           transform="matrix(0.26458333,0,0,0.26458333,43.65625,69.458334)" />
        <path
           style="opacity:1;fill:#ffffff;fill-opacity:0;fill-rule:nonzero;stroke:#000000;stroke-width:1.59148622;stroke-linecap:square;stroke-miterlimit:4;stroke-dasharray:none;stroke-opacity:1"
           d="m 118.52171,189.26838 c -7.82685,-2.11069 -17.28439,-6.96351 -23.752407,-12.18775 -2.723564,-2.19983 -7.73805,-7.42177 -9.822113,-10.22846 -4.315926,-5.81244 -8.991699,-15.35632 -10.409423,-21.24704 -1.169788,-4.86053 -1.143009,-21.19406 0.04349,-26.5258 1.665367,-7.48362 5.204269,-14.97835 10.285501,-21.782763 l 1.865359,-2.49795 7.192462,7.331393 c 3.955854,4.03227 8.705101,8.7107 10.553891,10.3965 14.45289,13.17879 38.73913,26.86584 56.87186,32.05139 6.2016,1.77351 11.99194,2.83853 24.63964,4.53194 1.13863,0.15245 1.20651,0.20979 1.03891,0.8776 -0.43146,1.71905 -3.34882,7.93849 -5.07928,10.82837 -6.32398,10.56106 -14.98675,18.53405 -26.0021,23.93164 -5.52787,2.70869 -9.23612,4.01127 -12.86275,4.51825 -1.89349,0.2647 -6.36076,0.46068 -12.49206,0.54803 -9.43442,0.13441 -9.57363,0.12812 -12.07098,-0.54535 z"
           id="path5463"
           inkscape:connector-curvature="0"
           transform="matrix(0.26458333,0,0,0.26458333,43.65625,69.458334)" />
        <path
           style="opacity:1;fill:#ffffff;fill-opacity:0;fill-rule:nonzero;stroke:#000000;stroke-width:1.59148622;stroke-linecap:square;stroke-miterlimit:4;stroke-dasharray:none;stroke-opacity:1"
           d="m 117.81991,188.09738 c -6.77226,-2.04539 -14.95562,-6.16604 -20.741174,-10.44399 -4.195187,-3.10201 -9.90128,-9.1119 -12.859545,-13.5442 -2.904803,-4.35221 -6.515961,-11.65787 -8.067933,-16.32208 -0.994965,-2.99021 -1.255817,-5.11167 -1.462022,-11.89033 -0.222567,-7.31657 0.22567,-14.30498 1.149882,-17.92767 1.560213,-6.11565 4.668056,-12.74012 8.715413,-18.5772 l 2.245764,-3.238831 6.596931,6.740541 c 7.681634,7.84886 11.208624,11.15674 15.860704,14.87539 14.84128,11.86341 35.57431,22.93619 51.80659,27.66808 4.36206,1.27159 11.46076,2.68978 18.23317,3.64266 2.85633,0.40189 5.53538,0.79868 5.95345,0.88176 l 0.76012,0.15105 -0.54495,1.38255 c -0.29973,0.76041 -1.23692,2.80431 -2.08265,4.54201 -6.78461,13.94011 -18.17989,24.26501 -33.53117,30.38153 -4.96566,1.9785 -6.38085,2.15126 -18.69836,2.28264 l -10.9481,0.11676 z"
           id="path5465"
           inkscape:connector-curvature="0"
           transform="matrix(0.26458333,0,0,0.26458333,43.65625,69.458334)" />
        <path
           style="opacity:1;fill:#ffffff;fill-opacity:0;fill-rule:nonzero;stroke:#000000;stroke-width:1.59148622;stroke-linecap:square;stroke-miterlimit:4;stroke-dasharray:none;stroke-opacity:1"
           d="m 116.30267,186.56934 c -6.97951,-2.43518 -15.37306,-6.97483 -20.222052,-10.93709 -2.617047,-2.13847 -7.52224,-7.27254 -9.664226,-10.11517 -3.925041,-5.20893 -8.800547,-15.12885 -10.020051,-20.38725 -1.006683,-4.34073 -1.010646,-19.90755 -0.0064,-25.15624 1.047226,-5.47336 4.504148,-13.37542 8.415645,-19.23705 1.056052,-1.582561 1.99373,-2.877384 2.083728,-2.877384 0.09,0 3.959676,3.768264 8.599283,8.373914 4.639603,4.60566 9.572563,9.3122 10.962133,10.45899 8.90342,7.34786 19.65075,14.27371 31.30033,20.17073 15.47177,7.83181 25.77984,10.99142 44.07311,13.50923 1.31237,0.18063 2.49301,0.4268 2.62364,0.54705 0.313,0.28812 -2.98329,7.037 -5.00267,10.24255 -6.4582,10.2517 -15.71001,18.11328 -27.43349,23.31119 -6.45049,2.85999 -8.15718,3.11302 -22.40148,3.32107 l -9.40414,0.13736 z"
           id="path5467"
           inkscape:connector-curvature="0"
           transform="matrix(0.26458333,0,0,0.26458333,43.65625,69.458334)" />
        <path
           style="opacity:1;fill:#ffffff;fill-opacity:0;fill-rule:nonzero;stroke:#000000;stroke-width:1.59148622;stroke-linecap:square;stroke-miterlimit:4;stroke-dasharray:none;stroke-opacity:1"
           d="m 116.55951,185.66124 c -4.85379,-1.76315 -11.85983,-5.27679 -16.05078,-8.04974 -5.222414,-3.45542 -11.338384,-9.56844 -14.743185,-14.73608 -3.138648,-4.76368 -6.486593,-11.59692 -7.94708,-16.22018 -1.629319,-5.1577 -1.699347,-21.90589 -0.1176,-28.12583 1.263197,-4.9673 4.293824,-11.66185 7.567824,-16.71706 l 1.712212,-2.643738 4.822306,4.761468 c 12.663183,12.50343 14.894963,14.47867 22.431173,19.85269 7.14516,5.09516 15.50154,10.08332 23.93776,14.28912 14.55527,7.25639 24.0891,10.27502 40.13117,12.70644 2.61821,0.39682 4.81359,0.77471 4.87862,0.83974 0.17263,0.17263 -1.71129,4.06915 -3.4971,7.23305 -4.54291,8.04864 -12.52775,16.11223 -20.78361,20.9886 -4.86416,2.87303 -10.21323,5.24252 -13.54626,6.0006 -2.61816,0.59549 -9.28355,0.99216 -18.12807,1.07884 l -7.01517,0.0687 z"
           id="path5469"
           inkscape:connector-curvature="0"
           transform="matrix(0.26458333,0,0,0.26458333,43.65625,69.458334)" />
        <path
           style="opacity:1;fill:#ffffff;fill-opacity:0;fill-rule:nonzero;stroke:#000000;stroke-width:1.59148622;stroke-linecap:square;stroke-miterlimit:4;stroke-dasharray:none;stroke-opacity:1"
           d="m 115.85486,184.37733 c -9.80959,-3.99061 -15.993537,-7.76226 -21.701473,-13.23596 -5.355987,-5.13619 -8.232748,-9.12562 -11.852177,-16.43632 -3.806345,-7.68824 -4.392075,-10.06183 -4.779853,-19.36971 -0.197833,-4.74862 0.236263,-12.38973 0.88127,-15.51241 0.236293,-1.14396 0.809009,-3.17462 1.272703,-4.51258 0.996316,-2.8748 4.50012,-10.06646 6.206542,-12.73911 l 1.203428,-1.88484 7.63716,7.4045 c 8.94322,8.67079 10.88437,10.41257 15.39168,13.81088 8.0713,6.08542 17.20929,11.68539 27.3562,16.76451 14.8074,7.41196 22.76929,10.02684 38.54193,12.65807 3.0565,0.5099 5.6223,0.99211 5.70178,1.07159 0.26768,0.26768 -2.91987,6.26298 -4.89724,9.21093 -4.33445,6.46202 -11.17174,13.0136 -17.80896,17.0648 -3.24939,1.98335 -8.56374,4.52205 -11.53552,5.51059 -3.71477,1.23569 -6.86185,1.52749 -18.4236,1.70828 l -9.12342,0.14266 z"
           id="path5471"
           inkscape:connector-curvature="0"
           transform="matrix(0.26458333,0,0,0.26458333,43.65625,69.458334)" />
        <path
           style="opacity:1;fill:#ffffff;fill-opacity:0;fill-rule:nonzero;stroke:#000000;stroke-width:1.59148622;stroke-linecap:square;stroke-miterlimit:4;stroke-dasharray:none;stroke-opacity:1"
           d="m 115.85137,183.37529 c -10.21864,-4.35495 -15.56511,-7.68791 -21.432874,-13.36114 -4.813741,-4.65416 -7.318304,-8.09446 -10.730575,-14.73969 -4.611154,-8.98 -5.026915,-10.88691 -5.020548,-23.02705 0.0051,-9.66627 0.241664,-11.7745 1.824711,-16.25961 1.450346,-4.10914 6.159453,-13.63712 6.740008,-13.63712 0.111715,0 2.902557,2.60595 6.201871,5.791 10.263117,9.90766 12.786177,12.11731 18.771537,16.43971 7.56581,5.46375 15.64783,10.27753 25.54556,15.21535 14.33704,7.15252 21.78582,9.58807 37.89726,12.39139 2.39315,0.4164 4.44852,0.84616 4.5675,0.95502 0.39804,0.36422 -3.17011,6.61802 -5.71468,10.01596 -3.70906,4.95299 -9.39325,10.3396 -14.41109,13.65667 -3.13645,2.07336 -10.23816,5.6038 -13.07521,6.50001 -1.15798,0.3658 -3.05284,0.81234 -4.21081,0.99231 -1.70872,0.26557 -18.11011,0.87904 -21.8962,0.819 -0.5478,-0.009 -2.78504,-0.78378 -5.05646,-1.75181 z"
           id="path5473"
           inkscape:connector-curvature="0"
           transform="matrix(0.26458333,0,0,0.26458333,43.65625,69.458334)" />
        <path
           style="opacity:1;fill:#ffffff;fill-opacity:0;fill-rule:nonzero;stroke:#000000;stroke-width:1.59148622;stroke-linecap:square;stroke-miterlimit:4;stroke-dasharray:none;stroke-opacity:1"
           d="m 119.2738,183.68412 c -2.75206,-0.92592 -10.15834,-4.34671 -13.28223,-6.13475 -4.42025,-2.53007 -7.509485,-4.9482 -11.766526,-9.21041 -4.497178,-4.50264 -6.670382,-7.58856 -10.050586,-14.27169 -2.678903,-5.29656 -3.812052,-8.51067 -4.228764,-11.99464 -0.38802,-3.24408 -0.393591,-16.69653 -0.0082,-19.79816 0.422884,-3.40336 1.883203,-7.51562 4.771837,-13.4375 l 2.518761,-5.16362 0.623589,0.53173 c 0.342973,0.29245 3.344275,3.12137 6.669558,6.2865 10.025301,9.54243 12.889151,11.96064 19.725661,16.65616 7.12868,4.89619 14.02073,8.91893 22.80236,13.30924 14.11498,7.05669 21.17787,9.43291 36.50349,12.28116 2.89992,0.53894 5.33022,1.03754 5.40068,1.10799 0.17389,0.17389 -1.6506,3.42598 -3.54378,6.31666 -4.06761,6.21081 -10.98244,12.91596 -17.21534,16.69332 -3.84806,2.33206 -10.13839,5.20107 -12.98862,5.92409 -2.21582,0.56208 -3.85793,0.72912 -9.48844,0.96517 -12.93063,0.54209 -14.66941,0.53561 -16.44345,-0.0613 z"
           id="path5475"
           inkscape:connector-curvature="0"
           transform="matrix(0.26458333,0,0,0.26458333,43.65625,69.458334)" />
        <path
           style="opacity:1;fill:#ffffff;fill-opacity:0;fill-rule:nonzero;stroke:#000000;stroke-width:1.59148622;stroke-linecap:square;stroke-miterlimit:4;stroke-dasharray:none;stroke-opacity:1"
           d="m 119.0968,182.60489 c -2.25035,-0.77383 -10.07689,-4.41122 -12.58654,-5.84961 -6.688252,-3.83333 -13.575564,-10.23708 -17.676933,-16.43582 -1.809667,-2.73509 -5.062273,-9.02394 -6.370525,-12.31728 -1.600241,-4.02837 -1.771852,-5.56061 -1.780262,-15.89513 -0.007,-8.64863 0.04021,-9.59966 0.588154,-11.838 0.706128,-2.88453 2.170272,-6.61788 4.525589,-11.53957 l 1.716484,-3.58679 6.661775,6.28402 c 9.995748,9.42894 12.470228,11.53428 18.592398,15.81878 7.76442,5.43382 15.14101,9.69633 25.88003,14.95462 13.15971,6.44355 19.73603,8.61003 34.61523,11.40353 2.31594,0.43481 4.25912,0.8246 4.31816,0.86619 0.059,0.0416 -0.42003,0.99581 -1.06461,2.12047 -3.95287,6.89693 -10.96085,14.32101 -17.61266,18.65841 -2.83304,1.84733 -9.61013,5.18029 -12.44081,6.11837 -2.81191,0.93187 -5.07098,1.20184 -12.91807,1.5438 -9.89708,0.43128 -12.46127,0.37697 -14.44741,-0.30599 z"
           id="path5477"
           inkscape:connector-curvature="0"
           transform="matrix(0.26458333,0,0,0.26458333,43.65625,69.458334)" />
        <path
           style="opacity:1;fill:#ffffff;fill-opacity:0;fill-rule:nonzero;stroke:#000000;stroke-width:1.59148622;stroke-linecap:square;stroke-miterlimit:4;stroke-dasharray:none;stroke-opacity:1"
           d="m 121.18855,182.0827 c -3.21047,-0.41527 -14.24329,-5.82169 -18.80827,-9.21663 -5.367418,-3.99172 -10.628182,-9.5364 -13.446471,-14.17217 -1.687227,-2.77529 -5.172453,-9.83841 -6.025955,-12.21212 -1.03993,-2.8922 -1.296255,-5.8175 -1.296464,-14.79581 -2e-4,-8.63527 0.171034,-10.29401 1.448962,-14.03602 0.849066,-2.48622 4.20972,-10.12656 4.646241,-10.56308 0.12288,-0.12288 3.064174,2.43736 6.536211,5.68944 10.340766,9.68564 13.310196,12.12381 21.050616,17.28446 6.88298,4.58898 12.40737,7.72434 21.80314,12.37436 13.36418,6.61401 19.685,8.80256 33.38506,11.55943 3.03615,0.61096 5.56504,1.15562 5.61976,1.21034 0.0547,0.0547 -0.52006,1.10156 -1.27731,2.32631 -3.19359,5.16518 -9.10782,11.54183 -14.29867,15.41662 -2.91182,2.17358 -10.7128,6.23977 -14.21322,7.4085 -2.99611,1.00036 -5.85687,1.3278 -15.01374,1.71843 -7.16334,0.30559 -7.80479,0.30609 -10.10989,0.008 z"
           id="path5479"
           inkscape:connector-curvature="0"
           transform="matrix(0.26458333,0,0,0.26458333,43.65625,69.458334)" />
        <path
           style="opacity:1;fill:#ffffff;fill-opacity:0;fill-rule:nonzero;stroke:#000000;stroke-width:1.59148622;stroke-linecap:square;stroke-miterlimit:4;stroke-dasharray:none;stroke-opacity:1"
           d="m 122.31143,181.1905 c -1.45973,-0.12687 -2.8802,-0.49935 -4.63188,-1.21458 -3.30215,-1.34832 -10.11009,-4.83879 -12.77278,-6.54871 -4.66582,-2.99626 -10.385542,-8.48754 -13.764996,-13.21522 -1.955379,-2.73547 -6.387271,-11.35894 -7.422193,-14.44191 -1.718667,-5.11983 -1.712295,-21.93452 0.01026,-27.0831 0.633239,-1.8927 3.938932,-9.83379 4.2171,-10.13052 0.120597,-0.12864 2.298175,1.81081 9.099647,8.10456 12.067032,11.16624 21.802552,17.70261 39.272072,26.36702 13.65286,6.77145 19.36517,8.7913 32.94882,11.65056 l 5.54977,1.16819 -1.71673,2.51705 c -4.31097,6.32071 -10.63659,12.49089 -16.1049,15.70917 -4.14574,2.43989 -9.90561,5.12982 -12.28346,5.73651 -1.18927,0.30343 -3.71575,0.69262 -5.6144,0.86486 -4.88659,0.4433 -14.29567,0.7326 -16.78633,0.51612 z"
           id="path5481"
           inkscape:connector-curvature="0"
           transform="matrix(0.26458333,0,0,0.26458333,43.65625,69.458334)" />
        <path
           style="opacity:1;fill:#ffffff;fill-opacity:0;fill-rule:nonzero;stroke:#000000;stroke-width:1.59148622;stroke-linecap:square;stroke-miterlimit:4;stroke-dasharray:none;stroke-opacity:1"
           d="m 120.90783,179.99163 c -0.84918,-0.19376 -2.23874,-0.63488 -3.08792,-0.98027 -3.29414,-1.33984 -11.49012,-5.74268 -13.89103,-7.46218 -4.7537,-3.40453 -9.971228,-8.73907 -12.76807,-13.0544 -2.044968,-3.15525 -6.377916,-12.16208 -6.847486,-14.23376 -1.41344,-6.23594 -1.182162,-20.70597 0.406315,-25.42129 0.930537,-2.76226 3.436369,-8.62887 3.685686,-8.62887 0.128661,0 2.472972,2.06002 5.20958,4.57782 15.196845,13.98177 23.004045,19.35819 41.609675,28.65443 14.19838,7.09418 21.00004,9.51757 34.38825,12.2523 1.69836,0.34692 3.1912,0.72299 3.31743,0.83571 0.42806,0.3823 -4.1048,6.01672 -7.7903,9.68347 -4.33862,4.31655 -7.27366,6.45625 -12.47934,9.09765 -7.41714,3.76352 -9.52978,4.28549 -19.40109,4.79343 -6.98789,0.35957 -10.4147,0.32793 -12.3517,-0.11404 z"
           id="path5483"
           inkscape:connector-curvature="0"
           transform="matrix(0.26458333,0,0,0.26458333,43.65625,69.458334)" />
        <path
           style="opacity:1;fill:#ffffff;fill-opacity:0;fill-rule:nonzero;stroke:#000000;stroke-width:1.59148622;stroke-linecap:square;stroke-miterlimit:4;stroke-dasharray:none;stroke-opacity:1"
           d="m 122.73252,179.26924 c -2.49353,-0.25663 -3.9584,-0.77119 -8.1409,-2.8596 -8.5365,-4.26247 -11.61515,-6.3523 -16.448033,-11.16516 -4.450883,-4.43245 -6.282005,-7.01929 -9.376074,-13.24564 -3.126147,-6.2909 -3.686695,-7.8962 -4.103232,-11.75089 -0.422702,-3.91174 -0.157453,-16.25952 0.407046,-18.94863 0.393326,-1.8737 2.198262,-6.76385 3.215998,-8.71317 l 0.478013,-0.91556 5.61441,5.06291 c 15.036322,13.5593 22.428902,18.56995 40.931552,27.74316 13.93366,6.90801 19.8641,9.03234 33.66588,12.05936 l 2.73299,0.59941 -0.99812,1.31129 c -2.12916,2.79724 -5.98885,6.98552 -8.53831,9.2652 -3.42681,3.0642 -6.21674,4.87557 -11.47783,7.45202 -6.18633,3.02955 -8.92723,3.64568 -17.60423,3.95728 -2.45522,0.0882 -5.3483,0.20305 -6.42908,0.25528 -1.08077,0.0522 -2.84931,0.004 -3.93008,-0.10726 z"
           id="path5485"
           inkscape:connector-curvature="0"
           transform="matrix(0.26458333,0,0,0.26458333,43.65625,69.458334)" />
        <path
           style="opacity:1;fill:#ffffff;fill-opacity:0;fill-rule:nonzero;stroke:#000000;stroke-width:1.59148622;stroke-linecap:square;stroke-miterlimit:4;stroke-dasharray:none;stroke-opacity:1"
           d="m 120.79461,177.9782 c -1.86471,-0.45118 -8.86603,-3.82767 -12.59054,-6.07198 -3.98524,-2.40144 -5.75795,-3.80688 -9.480373,-7.51631 -4.171007,-4.15644 -6.13475,-6.95943 -9.289281,-13.25922 -3.078647,-6.14824 -3.56134,-7.71476 -3.889604,-12.62327 -0.325167,-4.86219 0.07399,-15.69769 0.65459,-17.76955 0.501265,-1.78874 1.931596,-5.66269 2.470583,-6.69138 l 0.413809,-0.78978 5.735902,5.10682 c 14.205774,12.64776 21.604504,17.67527 38.299474,26.0249 14.06296,7.03328 19.95338,9.31061 30.73889,11.88416 2.54754,0.60787 4.97808,1.19864 5.4012,1.31281 l 0.7693,0.20758 -1.00024,1.26324 c -1.97621,2.49583 -6.12965,6.80777 -8.36554,8.68477 -3.07582,2.58211 -5.60689,4.17284 -10.2387,6.43488 -6.22728,3.0412 -8.27895,3.53326 -16.56901,3.97379 -6.7872,0.36068 -11.09484,0.30412 -13.06046,-0.17146 z"
           id="path5487"
           inkscape:connector-curvature="0"
           transform="matrix(0.26458333,0,0,0.26458333,43.65625,69.458334)" />
        <path
           style="opacity:1;fill:#ffffff;fill-opacity:0;fill-rule:nonzero;stroke:#000000;stroke-width:1.59148622;stroke-linecap:square;stroke-miterlimit:4;stroke-dasharray:none;stroke-opacity:1"
           d="m 123.1536,177.26718 c -2.71147,-0.20026 -4.7608,-0.98279 -10.58877,-4.04329 -6.49037,-3.40835 -10.96122,-6.83486 -15.233057,-11.67476 -2.70379,-3.06335 -4.588583,-5.99338 -7.137077,-11.09504 -2.479482,-4.96351 -3.124109,-6.78301 -3.519053,-9.93275 -0.57075,-4.55182 -0.222545,-17.07066 0.555142,-19.95877 0.460975,-1.71193 1.981417,-5.5802 2.190748,-5.57364 0.102281,0.003 2.712451,2.2284 5.800376,4.94488 14.239121,12.52631 21.047061,17.06441 38.837931,25.88896 13.11129,6.50341 17.88261,8.3569 28.48988,11.06737 l 5.85003,1.49484 -2.36215,2.6531 c -5.03111,5.65082 -9.00934,8.74061 -15.23304,11.83109 -4.39832,2.18406 -6.15733,2.8898 -8.56197,3.43521 -3.45813,0.78435 -14.18183,1.32522 -19.08899,0.9628 z"
           id="path5489"
           inkscape:connector-curvature="0"
           transform="matrix(0.26458333,0,0,0.26458333,43.65625,69.458334)" />
        <path
           style="opacity:1;fill:#ffffff;fill-opacity:0;fill-rule:nonzero;stroke:#000000;stroke-width:1.59148622;stroke-linecap:square;stroke-miterlimit:4;stroke-dasharray:none;stroke-opacity:1"
           d="m 122.31143,176.26695 c -2.79325,-0.46758 -10.14507,-4.05992 -15.18924,-7.42196 -4.62633,-3.08355 -9.426099,-7.83283 -12.254892,-12.12598 -2.17846,-3.30617 -5.56394,-9.9472 -6.507775,-12.7658 -1.119435,-3.34299 -1.393923,-13.46946 -0.560793,-20.68885 0.264199,-2.28939 1.572488,-6.59693 2.003622,-6.59693 0.130922,0 2.549424,2.01028 5.37445,4.46729 14.049138,12.21896 20.292678,16.37374 37.521288,24.9686 13.82872,6.89875 18.3406,8.69283 28.90863,11.49506 l 5.18774,1.37559 -3.9245,3.92461 c -4.56323,4.56336 -7.45508,6.61116 -13.5055,9.56362 -5.87208,2.86544 -7.14094,3.19149 -14.4206,3.70565 -3.95636,0.27943 -11.21499,0.33637 -12.63243,0.0991 z"
           id="path5491"
           inkscape:connector-curvature="0"
           transform="matrix(0.26458333,0,0,0.26458333,43.65625,69.458334)" />
        <path
           style="opacity:1;fill:#ffffff;fill-opacity:0;fill-rule:nonzero;stroke:#000000;stroke-width:1.59148622;stroke-linecap:square;stroke-miterlimit:4;stroke-dasharray:none;stroke-opacity:1"
           d="m 124.13612,175.33302 c -3.13888,-0.19466 -3.82353,-0.42619 -9.13797,-3.09023 -7.95468,-3.98756 -13.54343,-8.41058 -18.104109,-14.32785 -2.692038,-3.4928 -7.351042,-12.56825 -8.009111,-15.60126 -0.162762,-0.75016 -0.366114,-4.33255 -0.451893,-7.96086 -0.171329,-7.24695 0.123694,-11.25977 1.058627,-14.39909 0.524841,-1.76232 0.617993,-1.89859 1.047747,-1.53271 0.25943,0.22086 2.619203,2.23294 5.243939,4.47128 11.79281,10.05675 17.20569,13.86108 27.87205,19.58928 5.51032,2.95923 18.10808,9.1317 22.09619,10.82638 3.78954,1.61029 10.84396,3.94898 15.69871,5.20446 l 3.62773,0.93816 -3.39609,3.2667 c -4.07855,3.92315 -7.04558,6.00462 -12.28098,8.61548 -6.16518,3.07454 -8.1959,3.58803 -15.29927,3.86864 -2.08435,0.0823 -4.54767,0.18481 -5.47404,0.22771 -0.92638,0.0429 -2.94757,-2.8e-4 -4.49153,-0.0961 z"
           id="path5493"
           inkscape:connector-curvature="0"
           transform="matrix(0.26458333,0,0,0.26458333,43.65625,69.458334)" />
        <path
           style="opacity:1;fill:#ffffff;fill-opacity:0;fill-rule:nonzero;stroke:#000000;stroke-width:1.59148622;stroke-linecap:square;stroke-miterlimit:4;stroke-dasharray:none;stroke-opacity:1"
           d="m 122.21735,174.20196 c -2.09658,-0.35195 -9.14823,-3.82101 -13.37295,-6.57884 -4.74017,-3.0943 -9.474392,-7.66166 -12.226111,-11.79519 -1.817478,-2.73014 -4.833355,-8.46504 -6.036499,-11.47881 -0.851284,-2.13239 -0.892917,-2.4309 -1.115837,-8.00053 -0.330909,-8.26774 0.295019,-16.33579 1.264429,-16.29817 0.154396,0.006 2.120307,1.57277 4.368691,3.48173 10.156237,8.623 17.032747,13.58755 25.106957,18.12613 4.59232,2.58138 20.56916,10.50609 24.68906,12.24607 3.6542,1.5433 8.87701,3.34829 14.14968,4.89011 2.0832,0.60916 3.83421,1.15414 3.89113,1.21106 0.26401,0.26402 -5.68125,5.46982 -8.06089,7.0583 -3.4833,2.32519 -10.22781,5.59173 -13.00685,6.29955 -3.60376,0.91786 -16.02173,1.44779 -19.65081,0.83859 z"
           id="path5495"
           inkscape:connector-curvature="0"
           transform="matrix(0.26458333,0,0,0.26458333,43.65625,69.458334)" />
        <path
           style="opacity:1;fill:#ffffff;fill-opacity:0;fill-rule:nonzero;stroke:#000000;stroke-width:1.59148622;stroke-linecap:square;stroke-miterlimit:4;stroke-dasharray:none;stroke-opacity:1"
           d="m 123.8554,173.36491 c -1.6397,-0.15192 -2.88971,-0.48669 -4.63189,-1.24044 -9.29188,-4.02014 -17.29515,-10.17481 -21.67924,-16.67175 -1.761508,-2.61044 -5.592064,-10.00195 -6.424882,-12.39757 -0.606133,-1.74355 -0.634169,-2.21161 -0.630572,-10.52702 0.0021,-4.78628 0.121231,-9.25499 0.2648,-9.93046 l 0.261035,-1.22812 4.583018,3.8051 c 8.179221,6.79089 12.888001,10.32852 18.432511,13.84805 4.81207,3.0546 7.6706,4.59388 18.52755,9.97681 11.97364,5.93659 16.0124,7.59363 25.54556,10.48095 1.38957,0.42085 2.63159,0.82724 2.76005,0.90307 0.33748,0.19922 -0.99435,1.51842 -3.88293,3.8461 -4.96047,3.99727 -12.72451,7.86104 -17.1827,8.55097 -1.85903,0.28769 -11.8312,0.91798 -13.13511,0.8302 -0.30879,-0.0208 -1.57203,-0.13144 -2.8072,-0.24589 z"
           id="path5497"
           inkscape:connector-curvature="0"
           transform="matrix(0.26458333,0,0,0.26458333,43.65625,69.458334)" />
        <path
           style="opacity:1;fill:#ffffff;fill-opacity:0;fill-rule:nonzero;stroke:#000000;stroke-width:1.59148622;stroke-linecap:square;stroke-miterlimit:4;stroke-dasharray:none;stroke-opacity:1"
           d="m 124.65257,172.52901 c -2.6413,-0.28524 -4.33572,-0.86448 -8.23627,-2.81554 -7.65451,-3.8288 -14.49933,-9.44216 -18.078451,-14.82592 -1.755172,-2.64015 -5.918982,-10.79575 -6.461136,-12.65533 -0.361667,-1.24051 -0.443729,-3.07199 -0.440232,-9.82522 0.0024,-4.56526 0.111239,-8.46919 0.241943,-8.67538 0.177014,-0.27926 1.482997,0.64488 5.11885,3.6222 8.682886,7.11023 14.758746,11.44201 21.443716,15.28831 3.70622,2.13242 21.86484,11.15591 25.96664,12.90348 1.77556,0.75648 5.92741,2.27756 9.22634,3.38017 l 5.99806,2.00476 -1.92761,1.64064 c -2.6853,2.28552 -6.43205,4.68171 -10.0685,6.43918 -5.2579,2.54112 -7.3022,3.01712 -14.45711,3.36627 -1.92995,0.0942 -4.14062,0.21583 -4.91261,0.27034 -0.77198,0.0545 -2.30811,10e-4 -3.41363,-0.11796 z"
           id="path5499"
           inkscape:connector-curvature="0"
           transform="matrix(0.26458333,0,0,0.26458333,43.65625,69.458334)" />
        <path
           style="opacity:1;fill:#ffffff;fill-opacity:0;fill-rule:nonzero;stroke:#000000;stroke-width:1.59148622;stroke-linecap:square;stroke-miterlimit:4;stroke-dasharray:none;stroke-opacity:1"
           d="m 123.71504,171.51582 c -4.04544,-0.7989 -12.17106,-5.2108 -17.26431,-9.37386 -2.77571,-2.26877 -5.84165,-5.57865 -7.45076,-8.04356 -0.756522,-1.15887 -2.469574,-4.28316 -3.806781,-6.94285 -2.280176,-4.53526 -2.445339,-4.98307 -2.657402,-7.20513 -0.265948,-2.78668 -0.278272,-10.63491 -0.02044,-13.01374 l 0.180073,-1.66137 5.165455,4.13303 c 11.944535,9.55718 16.518525,12.44805 31.749285,20.06633 12.95841,6.48167 14.46344,7.15173 21.89619,9.74838 2.85633,0.99787 5.38282,1.88358 5.61441,1.96824 0.53831,0.19679 -0.26106,0.86796 -4.18399,3.51299 -5.60969,3.78233 -10.68854,5.87265 -15.57307,6.40944 -3.08583,0.33912 -12.55494,0.61809 -13.64867,0.4021 z"
           id="path5501"
           inkscape:connector-curvature="0"
           transform="matrix(0.26458333,0,0,0.26458333,43.65625,69.458334)" />
        <path
           style="opacity:1;fill:#ffffff;fill-opacity:0;fill-rule:nonzero;stroke:#000000;stroke-width:1.59148622;stroke-linecap:square;stroke-miterlimit:4;stroke-dasharray:none;stroke-opacity:1"
           d="m 121.83713,170.00666 c -1.86928,-0.66474 -6.65148,-3.08072 -9.03966,-4.56685 -5.28161,-3.28668 -10.41399,-7.96073 -12.913008,-11.75986 -0.644731,-0.98016 -2.329937,-4.0797 -3.744901,-6.88788 l -2.572662,-5.10578 -0.155017,-4.158 c -0.08526,-2.2869 -0.115658,-5.57344 -0.06755,-7.30343 l 0.08746,-3.14544 3.982985,3.16537 c 12.102703,9.61831 16.809093,12.55269 33.620183,20.96186 9.39044,4.69724 14.24022,6.83357 20.05032,8.83217 2.16155,0.74355 4.04134,1.44951 4.17731,1.56879 0.37153,0.32595 -5.43522,4.06078 -8.94955,5.75625 -5.28543,2.54993 -9.1283,3.2199 -18.24684,3.18115 -3.88879,-0.0165 -5.04194,-0.11618 -6.22907,-0.53835 z"
           id="path5503"
           inkscape:connector-curvature="0"
           transform="matrix(0.26458333,0,0,0.26458333,43.65625,69.458334)" />
        <path
           style="opacity:1;fill:#ffffff;fill-opacity:0;fill-rule:nonzero;stroke:#000000;stroke-width:1.59148622;stroke-linecap:square;stroke-miterlimit:4;stroke-dasharray:none;stroke-opacity:1"
           d="m 124.13612,169.47201 c -2.77004,-0.35052 -8.7824,-3.32795 -13.66479,-6.76706 -3.26946,-2.30298 -8.24068,-7.16066 -9.76694,-9.54386 -0.64271,-1.00358 -2.313023,-4.09147 -3.711805,-6.86198 l -2.543242,-5.0373 -0.147161,-6.17548 -0.147161,-6.17549 0.720064,0.54541 c 0.396035,0.29997 2.530948,1.94991 4.744251,3.66653 10.372874,8.04514 14.895834,10.80489 30.467914,18.59046 9.62031,4.80986 13.9021,6.74491 19.03299,8.60149 2.00715,0.72628 3.82332,1.41743 4.03593,1.5359 0.26863,0.14967 -0.38085,0.69009 -2.12875,1.7713 -5.0675,3.13463 -8.72406,4.66752 -12.85528,5.38917 -2.67528,0.46732 -11.65504,0.7622 -14.03602,0.46091 z"
           id="path5505"
           inkscape:connector-curvature="0"
           transform="matrix(0.26458333,0,0,0.26458333,43.65625,69.458334)" />
        <path
           style="opacity:1;fill:#ffffff;fill-opacity:0;fill-rule:nonzero;stroke:#000000;stroke-width:1.59148622;stroke-linecap:square;stroke-miterlimit:4;stroke-dasharray:none;stroke-opacity:1"
           d="m 121.64804,167.77437 c -6.44824,-2.45792 -13.93881,-7.73888 -18.38849,-12.96415 -1.42676,-1.67544 -2.61298,-3.60315 -4.860093,-7.89808 l -2.972657,-5.68167 -0.184689,-5.12315 c -0.101579,-2.81773 -0.109355,-5.12315 -0.01728,-5.12315 0.09208,0 1.013354,0.67092 2.047287,1.49094 7.025102,5.57164 13.220182,9.81099 19.565272,13.38867 6.31901,3.56299 24.12465,12.22806 29.48879,14.35066 l 5.14798,2.03706 -1.58143,0.95265 c -2.31798,1.39633 -5.88354,3.15116 -7.65014,3.7651 -3.23777,1.1252 -5.33703,1.39283 -11.93062,1.521 l -6.45657,0.12551 z"
           id="path5507"
           inkscape:connector-curvature="0"
           transform="matrix(0.26458333,0,0,0.26458333,43.65625,69.458334)" />
        <path
           style="opacity:1;fill:#ffffff;fill-opacity:0;fill-rule:nonzero;stroke:#000000;stroke-width:1.59148622;stroke-linecap:square;stroke-miterlimit:4;stroke-dasharray:none;stroke-opacity:1"
           d="m 121.45041,166.67385 c -8.11584,-3.55387 -15.66667,-9.40841 -19.22124,-14.90321 -0.65681,-1.01532 -2.28473,-3.94628 -3.617594,-6.51323 l -2.42339,-4.66719 0.0783,-3.79639 0.0783,-3.79639 3.509006,2.66014 c 4.396918,3.33325 10.119478,7.21924 14.316748,9.72199 5.88877,3.51136 26.67284,13.69865 32.77411,16.06419 1.11938,0.434 2.03523,0.8944 2.03523,1.02311 0,0.34128 -5.7692,3.17971 -7.85375,3.86404 -2.30986,0.75829 -5.36144,1.07886 -11.93704,1.254 l -5.33369,0.14207 z"
           id="path5509"
           inkscape:connector-curvature="0"
           transform="matrix(0.26458333,0,0,0.26458333,43.65625,69.458334)" />
        <path
           style="opacity:1;fill:#ffffff;fill-opacity:0;fill-rule:nonzero;stroke:#000000;stroke-width:1.59148622;stroke-linecap:square;stroke-miterlimit:4;stroke-dasharray:none;stroke-opacity:1"
           d="m 119.50423,164.60794 c -5.31954,-2.66404 -8.78251,-5.0955 -12.50482,-8.78001 -3.26066,-3.22755 -3.89029,-4.14035 -7.388647,-10.71166 -2.703015,-5.07734 -2.729359,-5.17057 -2.386838,-8.44763 l 0.177332,-1.69663 3.261493,2.43226 c 3.8975,2.90657 10.43173,7.26392 13.92887,9.28847 3.71416,2.1502 22.27047,11.35511 27.76387,13.77236 l 4.74479,2.08783 -2.95948,1.42461 c -1.62771,0.78353 -3.61446,1.57579 -4.41501,1.76058 -1.94398,0.44872 -7.11702,0.86795 -11.94031,0.96766 l -3.93008,0.0812 z"
           id="path5511"
           inkscape:connector-curvature="0"
           transform="matrix(0.26458333,0,0,0.26458333,43.65625,69.458334)" />
        <path
           style="opacity:1;fill:#ffffff;fill-opacity:0;fill-rule:nonzero;stroke:#000000;stroke-width:1.59148622;stroke-linecap:square;stroke-miterlimit:4;stroke-dasharray:none;stroke-opacity:1"
           d="m 119.92531,163.73871 c -4.72647,-2.45692 -7.34953,-4.19758 -10.52702,-6.98569 -4.08163,-3.58145 -5.45021,-5.4379 -9.06341,-12.29427 -1.987592,-3.77162 -2.58354,-5.58319 -2.239348,-6.80718 l 0.217003,-0.77169 2.384775,1.71415 c 4.09774,2.94541 10.41843,7.12231 13.33857,8.81452 3.35442,1.94389 21.82763,11.15305 27.07108,13.49533 l 3.7191,1.66134 -2.26539,1.0606 c -1.24597,0.58333 -2.93259,1.17862 -3.74804,1.32287 -2.2418,0.39657 -8.66215,0.84556 -11.9956,0.83889 l -2.96163,-0.006 z"
           id="path5513"
           inkscape:connector-curvature="0"
           transform="matrix(0.26458333,0,0,0.26458333,43.65625,69.458334)" />
        <path
           style="opacity:1;fill:#ffffff;fill-opacity:0;fill-rule:nonzero;stroke:#000000;stroke-width:1.59148622;stroke-linecap:square;stroke-miterlimit:4;stroke-dasharray:none;stroke-opacity:1"
           d="m 120.20603,162.81729 c -10.60026,-5.73283 -14.91962,-10.18517 -19.80731,-20.4171 -0.785876,-1.64517 -1.387885,-3.16737 -1.337795,-3.38267 0.06149,-0.2643 1.003005,0.25758 2.898275,1.6065 7.13242,5.07635 11.8032,7.7957 23.15944,13.48352 6.25305,3.13186 12.73235,6.31606 14.39846,7.07599 l 3.02927,1.38169 -1.41544,0.62629 c -1.80959,0.80068 -3.81535,1.10874 -9.55572,1.46764 -7.5614,0.47275 -6.8875,0.58192 -11.36918,-1.84186 z"
           id="path5515"
           inkscape:connector-curvature="0"
           transform="matrix(0.26458333,0,0,0.26458333,43.65625,69.458334)" />
        <path
           style="opacity:1;fill:#ffffff;fill-opacity:0;fill-rule:nonzero;stroke:#000000;stroke-width:1.59148622;stroke-linecap:square;stroke-miterlimit:4;stroke-dasharray:none;stroke-opacity:1"
           d="m 124.83792,163.84477 c -2.00579,-0.409 -9.38022,-4.634 -12.6814,-7.2655 -4.07185,-3.24583 -7.21471,-7.25324 -9.88655,-12.60617 -0.71131,-1.42508 -1.29329,-2.65271 -1.29329,-2.72808 0,-0.0754 1.54747,0.91671 3.43882,2.20461 5.68178,3.86897 10.6865,6.64566 23.5499,13.06584 l 12.25089,6.11448 -1.44316,0.31831 c -2.56762,0.56633 -12.43977,1.20145 -13.93521,0.89651 z"
           id="path5517"
           inkscape:connector-curvature="0"
           transform="matrix(0.26458333,0,0,0.26458333,43.65625,69.458334)" />
        <path
           style="opacity:1;fill:#ffffff;fill-opacity:0;fill-rule:nonzero;stroke:#000000;stroke-width:1.59148622;stroke-linecap:square;stroke-miterlimit:4;stroke-dasharray:none;stroke-opacity:1"
           d="m 121.89035,161.49538 c -6.86111,-3.45984 -11.96473,-7.53068 -15.28966,-12.19562 -1.60491,-2.25172 -3.27785,-5.12173 -2.98548,-5.12173 0.0668,0 1.49011,0.86627 3.16284,1.92503 4.68863,2.9677 8.90612,5.24908 19.95414,10.79384 5.59655,2.80879 10.1758,5.18331 10.17612,5.27671 7.6e-4,0.21893 -3.04658,0.48782 -7.99994,0.70589 l -3.93009,0.17302 z"
           id="path5519"
           inkscape:connector-curvature="0"
           transform="matrix(0.26458333,0,0,0.26458333,43.65625,69.458334)" />
        <path
           style="opacity:1;fill:#ffffff;fill-opacity:0;fill-rule:nonzero;stroke:#000000;stroke-width:1.59148622;stroke-linecap:square;stroke-miterlimit:4;stroke-dasharray:none;stroke-opacity:1"
           d="m 121.72308,160.33307 c -4.63539,-2.4894 -8.16127,-4.98308 -10.93451,-7.73342 -2.3458,-2.32644 -4.39864,-4.94539 -4.10587,-5.23815 0.0801,-0.0802 1.07133,0.41603 2.20264,1.10262 2.86131,1.73653 8.05298,4.50229 17.00657,9.05992 4.35631,2.21748 7.49927,3.97422 7.29874,4.07958 -0.19371,0.10177 -2.12074,0.25087 -4.28228,0.33134 l -3.93009,0.14629 z"
           id="path5521"
           inkscape:connector-curvature="0"
           transform="matrix(0.26458333,0,0,0.26458333,43.65625,69.458334)" />
        <path
           style="opacity:1;fill:#ffffff;fill-opacity:0;fill-rule:nonzero;stroke:#000000;stroke-width:1.59148622;stroke-linecap:square;stroke-miterlimit:4;stroke-dasharray:none;stroke-opacity:1"
           d="m 122.4178,159.63512 c -3.4697,-1.8678 -6.01535,-3.52783 -8.52798,-5.56113 -2.17928,-1.76355 -4.1952,-3.72011 -3.83297,-3.72011 0.11398,0 1.68623,0.80246 3.49389,1.78323 1.80765,0.98077 6.06578,3.21226 9.4625,4.95886 3.39671,1.74659 6.42502,3.3443 6.72957,3.55046 0.48028,0.32512 0.20103,0.37432 -2.1054,0.37093 -2.64668,-0.004 -2.67112,-0.0103 -5.21961,-1.38224 z"
           id="path5523"
           inkscape:connector-curvature="0"
           transform="matrix(0.26458333,0,0,0.26458333,43.65625,69.458334)" />
        <path
           style="opacity:1;fill:#ffffff;fill-opacity:0;fill-rule:nonzero;stroke:#000000;stroke-width:1.59148622;stroke-linecap:square;stroke-miterlimit:4;stroke-dasharray:none;stroke-opacity:1"
           d="m 122.80222,158.68822 c -2.88996,-1.49764 -5.35241,-3.00485 -5.18415,-3.1731 0.11306,-0.11306 8.90417,4.36846 8.90417,4.53916 0,0.38628 -1.16194,-0.0404 -3.72002,-1.36606 z"
           id="path5525"
           inkscape:connector-curvature="0"
           transform="matrix(0.26458333,0,0,0.26458333,43.65625,69.458334)" />
        <path
           style="opacity:1;fill:#ffffff;fill-opacity:0;fill-rule:nonzero;stroke:#000000;stroke-width:1.59148622;stroke-linecap:square;stroke-miterlimit:4;stroke-dasharray:none;stroke-opacity:1"
           d="M 125.11864,212.49664 C 105.43124,210.66729 88.159064,202.67115 74.580337,189.09997 61.594596,176.12145 53.571581,159.6281 51.430298,141.50918 50.928286,137.26129 50.849858,127.86815 51.283789,123.96201 53.398238,104.92824 61.369344,88.276457 74.730961,74.980438 88.366721,61.411622 105.60356,53.534037 125.39936,51.823959 c 19.09485,-1.649527 39.85322,4.555039 55.16157,16.487496 16.71259,13.027021 27.28315,31.083158 30.60972,52.286055 0.61082,3.89327 0.86188,14.84325 0.4395,19.16894 -1.84202,18.86444 -9.93454,35.98275 -23.31884,49.32686 -12.3789,12.34174 -27.8003,20.10591 -45.20656,22.76004 -3.67999,0.56113 -14.63059,0.95323 -17.96611,0.64329 z m 9.26377,-50.75701 c 0,-0.0681 -0.12632,-0.20186 -0.28072,-0.29729 -0.15439,-0.0954 -0.28072,-0.0397 -0.28072,0.1238 0,0.1635 0.12633,0.29728 0.28072,0.29728 0.1544,0 0.28072,-0.0557 0.28072,-0.12379 z m -18.2714,-7.49464 c -0.80918,-0.4425 -1.5254,-0.75038 -1.5916,-0.68418 -0.25115,0.25115 2.23529,1.80629 2.63981,1.65106 0.28859,-0.11074 -0.0445,-0.41801 -1.04821,-0.96688 z m -6.57236,-4.45255 c 0.0954,-0.15439 -0.0309,-0.28072 -0.28072,-0.28072 -0.24982,0 -0.37614,0.12633 -0.28072,0.28072 0.0954,0.1544 0.22175,0.28072 0.28072,0.28072 0.059,0 0.1853,-0.12632 0.28072,-0.28072 z m 78.36657,-0.63162 c -0.0779,-0.19299 -0.14159,-0.0351 -0.14159,0.3509 0,0.38599 0.0637,0.5439 0.14159,0.3509 0.0779,-0.19299 0.0779,-0.5088 0,-0.7018 z m -81.59485,-2.42627 c 0,-0.13788 -0.18949,-0.3234 -0.42108,-0.41227 -0.4279,-0.1642 -0.57492,0.13483 -0.23394,0.47581 0.26829,0.26829 0.65502,0.23077 0.65502,-0.0635 z m -3.08793,-3.11796 c 0,-0.15439 -0.13378,-0.28072 -0.29729,-0.28072 -0.1635,0 -0.21921,0.12633 -0.12379,0.28072 0.0954,0.1544 0.2292,0.28072 0.29729,0.28072 0.0681,0 0.12379,-0.12632 0.12379,-0.28072 z m 98.81361,-15.30658 c 0.84918,-0.26201 2.16126,-0.78897 2.91573,-1.17103 l 1.37177,-0.69466 -0.18332,-2.1981 c -0.27446,-3.29101 -1.18999,-8.11908 -2.31222,-12.19352 -4.79215,-17.398678 -15.81648,-32.535774 -31.06768,-42.657873 -20.64365,-13.70102 -47.56298,-16.211022 -70.38005,-6.562351 -2.37427,1.004011 -6.974524,3.201806 -7.27069,3.473612 -0.384873,0.353215 4.220172,9.469865 6.50847,12.884884 7.088,10.578025 22.61083,23.830918 40.18847,34.311618 13.60066,8.10942 25.18728,12.03574 42.82485,14.51191 7.85254,1.10243 14.42758,1.21407 17.40467,0.29551 z"
           id="path5527"
           inkscape:connector-curvature="0"
           transform="matrix(0.26458333,0,0,0.26458333,43.65625,69.458334)" />
      </g>
    </g>
  </g>
</svg>
